name C:\Users\u0101727\Documents\MyRepositories\upper-imu-dc\Results\main_tracking\Case_43\FLX01_linearAccelerations_groundFrame.mot
datacolumns 4
datarows 117
range 2.01000000 3.17000000
endheader 
time	radius_imu_x	radius_imu_y	radius_imu_z	
          2.01000000	         -1.28024821	          9.43441096	          1.28515791	
          2.02000000	         -1.23776598	          9.40463176	          1.27987075	
          2.03000000	         -1.19213953	          9.37456568	          1.27035805	
          2.04000000	         -1.14397503	          9.34489986	          1.25721030	
          2.05000000	         -1.09388710	          9.31626765	          1.24090496	
          2.06000000	         -1.04251510	          9.28926524	          1.22179350	
          2.07000000	         -0.99054758	          9.26446704	          1.20015220	
          2.08000000	         -0.93872484	          9.24241743	          1.17624964	
          2.09000000	         -0.88780719	          9.22359537	          1.15039652	
          2.10000000	         -0.83851115	          9.20836066	          1.12296656	
          2.11000000	         -0.79142693	          9.19689813	          1.09439243	
          2.12000000	         -0.74694660	          9.18918204	          1.06514558	
          2.13000000	         -0.70523821	          9.18498065	          1.03571262	
          2.14000000	         -0.66627989	          9.18390201	          1.00657641	
          2.15000000	         -0.62993146	          9.18546081	          0.97819139	
          2.16000000	         -0.59600068	          9.18913908	          0.95093996	
          2.17000000	         -0.56427650	          9.19442431	          0.92507507	
          2.18000000	         -0.53452906	          9.20082451	          0.90067006	
          2.19000000	         -0.50649110	          9.20786919	          0.87759831	
          2.20000000	         -0.47984288	          9.21510870	          0.85555414	
          2.21000000	         -0.45422668	          9.22212689	          0.83410960	
          2.22000000	         -0.42930275	          9.22857300	          0.81279203	
          2.23000000	         -0.40482085	          9.23419398	          0.79116862	
          2.24000000	         -0.38066221	          9.23884044	          0.76892884	
          2.25000000	         -0.35682393	          9.24243674	          0.74594619	
          2.26000000	         -0.33335492	          9.24493132	          0.72229775	
          2.27000000	         -0.31027445	          9.24625353	          0.69823207	
          2.28000000	         -0.28751041	          9.24630072	          0.67409626	
          2.29000000	         -0.26488098	          9.24496335	          0.65024456	
          2.30000000	         -0.24211972	          9.24217485	          0.62695054	
          2.31000000	         -0.21892724	          9.23796250	          0.60434081	
          2.32000000	         -0.19503444	          9.23248335	          0.58236106	
          2.33000000	         -0.17027287	          9.22604202	          0.56078013	
          2.34000000	         -0.14464012	          9.21908577	          0.53923458	
          2.35000000	         -0.11833214	          9.21216831	          0.51730866	
          2.36000000	         -0.09172611	          9.20588885	          0.49462501	
          2.37000000	         -0.06532766	          9.20082881	          0.47090409	
          2.38000000	         -0.03970392	          9.19750372	          0.44596517	
          2.39000000	         -0.01541250	          9.19633203	          0.41968242	
          2.40000000	          0.00706343	          9.19761660	          0.39193633	
          2.41000000	          0.02735733	          9.20153577	          0.36259657	
          2.42000000	          0.04523285	          9.20814254	          0.33154756	
          2.43000000	          0.06057642	          9.21737221	          0.29874096	
          2.44000000	          0.07337859	          9.22905780	          0.26424760	
          2.45000000	          0.08370888	          9.24295045	          0.22829140	
          2.46000000	          0.09169031	          9.25874050	          0.19125982	
          2.47000000	          0.09747848	          9.27607677	          0.15369360	
          2.48000000	          0.10124328	          9.29458445	          0.11626108	
          2.49000000	          0.10314744	          9.31388428	          0.07971989	
          2.50000000	          0.10332642	          9.33361441	          0.04486310	
          2.51000000	          0.10188459	          9.35345134	          0.01244508	
          2.52000000	          0.09891623	          9.37312068	         -0.01690649	
          2.53000000	          0.09454177	          9.39239171	         -0.04276731	
          2.54000000	          0.08894346	          9.41106078	         -0.06495480	
          2.55000000	          0.08238790	          9.42893641	         -0.08351896	
          2.56000000	          0.07522617	          9.44583554	         -0.09869410	
          2.57000000	          0.06786705	          9.46159033	         -0.11082694	
          2.58000000	          0.06072533	          9.47605976	         -0.12030019	
          2.59000000	          0.05415848	          9.48913929	         -0.12746802	
          2.60000000	          0.04841384	          9.50076327	         -0.13261726	
          2.61000000	          0.04360137	          9.51090231	         -0.13595428	
          2.62000000	          0.03970700	          9.51955790	         -0.13761344	
          2.63000000	          0.03664020	          9.52675673	         -0.13767101	
          2.64000000	          0.03429337	          9.53254360	         -0.13615068	
          2.65000000	          0.03259037	          9.53697244	         -0.13301744	
          2.66000000	          0.03150968	          9.54009925	         -0.12816929	
          2.67000000	          0.03107946	          9.54198162	         -0.12144377	
          2.68000000	          0.03135403	          9.54268437	         -0.11265194	
          2.69000000	          0.03238645	          9.54228415	         -0.10163297	
          2.70000000	          0.03420848	          9.54086510	         -0.08830331	
          2.71000000	          0.03682541	          9.53850486	         -0.07267995	
          2.72000000	          0.04022951	          9.53525828	         -0.05487950	
          2.73000000	          0.04443264	          9.53114922	         -0.03510856	
          2.74000000	          0.04950924	          9.52617700	         -0.01365862	
          2.75000000	          0.05562789	          9.52033721	          0.00909412	
          2.76000000	          0.06305201	          9.51364850	          0.03269770	
          2.77000000	          0.07210758	          9.50617102	          0.05665727	
          2.78000000	          0.08313504	          9.49800599	          0.08048718	
          2.79000000	          0.09644581	          9.48928517	          0.10376037	
          2.80000000	          0.11228172	          9.48016365	          0.12613964	
          2.81000000	          0.13078289	          9.47081746	          0.14739047	
          2.82000000	          0.15197118	          9.46144318	          0.16737958	
          2.83000000	          0.17574404	          9.45225539	          0.18607030	
          2.84000000	          0.20189246	          9.44347664	          0.20351795	
          2.85000000	          0.23014233	          9.43531549	          0.21986241	
          2.86000000	          0.26019855	          9.42794380	          0.23530949	
          2.87000000	          0.29176994	          9.42148741	          0.25009566	
          2.88000000	          0.32457049	          9.41603344	          0.26443839	
          2.89000000	          0.35831143	          9.41164768	          0.27848240	
          2.90000000	          0.39270015	          9.40839202	          0.29225675	
          2.91000000	          0.42745111	          9.40633375	          0.30565498	
          2.92000000	          0.46230182	          9.40554614	          0.31844117	
          2.93000000	          0.49702171	          9.40610452	          0.33027538	
          2.94000000	          0.53140591	          9.40808082	          0.34074924	
          2.95000000	          0.56525560	          9.41153622	          0.34942546	
          2.96000000	          0.59835240	          9.41650904	          0.35588230	
          2.97000000	          0.63043309	          9.42299743	          0.35976497	
          2.98000000	          0.66117112	          9.43094247	          0.36083474	
          2.99000000	          0.69017787	          9.44022284	          0.35899639	
          3.00000000	          0.71703254	          9.45066722	          0.35429314	
          3.01000000	          0.74133177	          9.46207762	          0.34687661	
          3.02000000	          0.76273689	          9.47425052	          0.33696941	
          3.03000000	          0.78099986	          9.48698773	          0.32483668	
          3.04000000	          0.79596209	          9.50009694	          0.31077348	
          3.05000000	          0.80753508	          9.51338746	          0.29510386	
          3.06000000	          0.81568293	          9.52666702	          0.27817931	
          3.07000000	          0.82042540	          9.53974635	          0.26036754	
          3.08000000	          0.82186175	          9.55245382	          0.24203264	
          3.09000000	          0.82019505	          9.56465557	          0.22351303	
          3.10000000	          0.81573239	          9.57627200	          0.20510375	
          3.11000000	          0.80885061	          9.58728336	          0.18704117	
          3.12000000	          0.79993976	          9.59772226	          0.16949054	
          3.13000000	          0.78934700	          9.60765733	          0.15253873	
          3.14000000	          0.77734019	          9.61717313	          0.13619471	
          3.15000000	          0.76409983	          9.62635167	          0.12040184	
          3.16000000	          0.74972988	          9.63525513	          0.10506588	
          3.17000000	          0.73427821	          9.64391378	          0.09009247	
